PathFileType	4	(X/Y/Z)	/Users/itak/Documents/Research/Walk-IL/dataset/trc/00566_00009.trc
DataRate	CameraRate	NumFrames	NumMarkers	Units	OrigDataRate	OrigDataStartFrame	OrigNumFrames
100.000000	100.000000	4	55	mm	100.000000	308	494
Frame#	Time	RPSI			LPSI			L3			STRN			T10			C7			CLAV			RBAK			LBAK			LSHO			LUPA			LAEL			LAOL			LWPS			LFRA			LHPS			LHTS			RSHO			RUPA			RAEL			RAOL			RWTS			RWPS			RFRA			RIFD			RHTS			RHPS			RBHD			LFHD			RFHD			LBHD			LHIP			RASI			LASI			LKNE			LTHI			LANK			LTIP			LTOE			LMT1			LMT5			LHEE			RKNE			RTHI			RANK			RTIP			RTOE			RMT1			RMT5			RHEE			RHIP			LWTS			LIFD			*53			*54			
		X1	Y1	Z1	X2	Y2	Z2	X3	Y3	Z3	X4	Y4	Z4	X5	Y5	Z5	X6	Y6	Z6	X7	Y7	Z7	X8	Y8	Z8	X9	Y9	Z9	X10	Y10	Z10	X11	Y11	Z11	X12	Y12	Z12	X13	Y13	Z13	X14	Y14	Z14	X15	Y15	Z15	X16	Y16	Z16	X17	Y17	Z17	X18	Y18	Z18	X19	Y19	Z19	X20	Y20	Z20	X21	Y21	Z21	X22	Y22	Z22	X23	Y23	Z23	X24	Y24	Z24	X25	Y25	Z25	X26	Y26	Z26	X27	Y27	Z27	X28	Y28	Z28	X29	Y29	Z29	X30	Y30	Z30	X31	Y31	Z31	X32	Y32	Z32	X33	Y33	Z33	X34	Y34	Z34	X35	Y35	Z35	X36	Y36	Z36	X37	Y37	Z37	X38	Y38	Z38	X39	Y39	Z39	X40	Y40	Z40	X41	Y41	Z41	X42	Y42	Z42	X43	Y43	Z43	X44	Y44	Z44	X45	Y45	Z45	X46	Y46	Z46	X47	Y47	Z47	X48	Y48	Z48	X49	Y49	Z49	X50	Y50	Z50	X51	Y51	Z51	X52	Y52	Z52	X53	Y53	Z53	X54	Y54	Z54	X55	Y55	Z55	

309	3.08	162.6670074462891	998.3787841796875	494.7959594726562	284.7341003417969	1000.679077148438	439.4970703125	226.5489654541016	1097.460205078125	468.7577209472656	321.3100280761719	1287.7412109375	679.0670166015625	219.3696441650391	1222.8037109375	461.4194030761719	214.3958435058594	1497.098266601562	514.875	305.8722534179688	1397.837768554688	663.2393798828125	111.849983215332	1366.033081054688	487.3503112792969	282.3287963867188	1448.999389648438	441.7047424316406	400.5364074707031	1476.432983398438	491.165283203125	469.0477905273438	1352.013305664062	443.5157470703125	509.5879211425781	1133.248413085938	441.9483032226562	421.0013732910156	1122.353149414062	394.8572387695312	567.4404296875	869.2766723632812	456.8084411621094	530.9984741210938	1047.119262695312	454.3130493164062	565.7745971679688	808.3351440429688	463.7059936523438	553.7133178710938	808.1079711914062	530.5994873046875	103.1291732788086	1451.557739257812	634.7557373046875	36.56672668457031	1384.429565429688	648.2411499023438	2.501363515853882	1094.214233398438	660.5709838867188	3.744990587234497	1074.760498046875	599.6876831054688	113.4355392456055	893.9408569335938	783.4834594726562	38.05710983276367	863.3760375976562	769.7593383789062	3.632477045059204	1039.279541015625	676.0780029296875	135.0414581298828	723.7158813476562	806.819091796875	120.73291015625	806.3213500976562	822.9584350585938	55.28047561645508	792.21728515625	790.9435424804688	188.1343231201172	1676.99951171875	639.5596313476562	368.81640625	1676.468627929688	745.3357543945312	228.1094512939453	1667.142333984375	774.82275390625	352.9927062988281	1684.340942382812	612.8579711914062	453.0253601074219	925.5089111328125	497.3856811523438	196.2311553955078	966.3641967773438	714.6738891601562	444.9634399414062	960.9524536132812	595.85595703125	511.1284484863281	498.2959289550781	630.9815673828125	508.2369384765625	665.7377319335938	586.692138671875	353.2404479980469	161.365234375	306.7224731445312	430.0396118164062	332.517333984375	451.4022827148438	423.3227233886719	48.83063888549805	472.4154052734375	358.576171875	84.93672180175781	451.2054748535156	426.7262573242188	91.77529144287109	370.1453857421875	277.0658874511719	201.7719116210938	301.2236633300781	236.7242736816406	494.1986999511719	688.117919921875	150.4042816162109	777.0609130859375	703.2694702148438	283.2998962402344	41.1030158996582	577.7019653320312	268.6145935058594	352.5538024902344	676.8080444335938	393.7311706542969	42.846435546875	773.2872924804688	413.0072937011719	39.87274169921875	698.2745971679688	308.1643676757812	43.47250747680664	707.3591918945312	315.1444702148438	31.11691474914551	509.5902709960938	110.9703598022461	928.0476684570312	659.6298217773438	527.1419677734375	885.685791015625	533.8887329101562	532.0322875976562	717.6865844726562	532.2623291015625	nan	nan	nan	nan	nan	nan	
310	3.09	167.0298919677734	998.6283569335938	499.9385986328125	289.8578491210938	1000.917297363281	446.0963439941406	230.9159393310547	1097.95849609375	475.0046997070312	323.7230224609375	1288.227661132812	686.2164306640625	223.4590148925781	1223.338500976562	467.7255249023438	217.9367980957031	1497.567260742188	521.382568359375	308.5836791992188	1398.30126953125	670.1869506835938	115.3949890136719	1366.566284179688	493.3373107910156	286.0562744140625	1449.42138671875	448.6882934570312	404.0751647949219	1476.7880859375	498.4852294921875	472.4476623535156	1352.431762695312	450.4505615234375	512.372802734375	1133.675170898438	447.2239074707031	423.4569702148438	1123.238159179688	400.6520080566406	569.6361694335938	869.4821166992188	459.9969482421875	533.6770629882812	1047.432739257812	458.9115905761719	568.0284423828125	808.5243530273438	466.6055603027344	556.6580810546875	808.0446166992188	533.68701171875	106.013313293457	1452.11181640625	640.6592407226562	39.33745193481445	1385.051147460938	653.957275390625	5.625532150268555	1094.83154296875	667.56982421875	6.755016326904297	1074.869750976562	606.8640747070312	118.2290649414062	897.2125854492188	792.860595703125	43.13676071166992	865.7139282226562	779.5260620117188	7.060260772705078	1040.091430664062	683.6802368164062	141.5419311523438	727.5646362304688	818.49609375	126.4138793945312	810.2557373046875	833.521484375	61.1181640625	795.0333862304688	801.635498046875	191.4061279296875	1677.509643554688	646.4114379882812	371.9163208007812	1676.63037109375	752.4315185546875	231.1918640136719	1667.59228515625	781.7230224609375	356.294921875	1684.528686523438	619.9391479492188	456.8399963378906	925.7706909179688	506.0566101074219	197.2457427978516	966.69970703125	720.441162109375	447.4375	961.7171020507812	604.7264404296875	515.8026733398438	501.3465881347656	647.8314819335938	512.9984741210938	667.9140625	600.4904174804688	371.7181701660156	152.1516418457031	330.7542724609375	441.7431945800781	329.2253723144531	471.0610046386719	442.6175537109375	48.0919075012207	501.5628967285156	377.2072448730469	81.05926513671875	477.8820495605469	446.5489501953125	87.67693328857422	397.9721069335938	294.1696472167969	189.4703979492188	322.465087890625	237.1423187255859	493.8258361816406	689.5924072265625	151.8493041992188	776.8706665039062	706.7415771484375	283.4057312011719	41.16353988647461	577.67626953125	268.8753662109375	352.2704467773438	677.726318359375	393.7618103027344	42.80148696899414	773.306640625	412.9993591308594	39.82030868530273	698.3196411132812	308.166259765625	43.46197891235352	707.3563232421875	315.1988220214844	31.25285339355469	509.626953125	112.8574905395508	928.1498413085938	663.90283203125	530.0819702148438	885.5380249023438	537.5018310546875	535.02880859375	717.6280517578125	535.02783203125	nan	nan	nan	nan	nan	nan	
311	3.1	171.3777313232422	998.779296875	505.085693359375	294.9322509765625	1001.068908691406	452.6627807617188	235.2554016113281	1098.35595703125	481.1793518066406	326.0916137695312	1288.591796875	693.2691650390625	227.5305633544922	1223.785034179688	473.9314880371094	221.4658660888672	1497.931396484375	527.8267211914062	311.2544250488281	1398.649780273438	677.08056640625	118.9321594238281	1367.004516601562	499.2423706054688	289.8083801269531	1449.758056640625	455.6144409179688	407.6215209960938	1477.05029296875	505.8124084472656	475.8981018066406	1352.764038085938	457.45849609375	515.224853515625	1134.017944335938	452.6670532226562	426.060546875	1124.03564453125	406.4923095703125	571.876708984375	869.61181640625	463.4641418457031	536.4224243164062	1047.670288085938	463.6969909667969	570.3056640625	808.6364135742188	469.7743225097656	559.5131225585938	807.892822265625	537.0133666992188	108.8487396240234	1452.557250976562	646.5000610351562	42.08870697021484	1385.556030273438	659.5999755859375	8.766161918640137	1095.341796875	674.5005493164062	9.83564567565918	1074.870239257812	613.964111328125	122.8960494995117	900.2929077148438	802.0665893554688	48.0751953125	867.9209594726562	789.1112670898438	10.50473117828369	1040.790405273438	691.1769409179688	147.7776947021484	731.244140625	829.9531860351562	131.8935241699219	813.9860229492188	843.8853149414062	66.75231170654297	797.7125244140625	812.1044311523438	194.6207733154297	1677.891967773438	653.21142578125	374.9213562011719	1676.69677734375	759.4972534179688	234.1856689453125	1667.911376953125	788.563720703125	359.5217590332031	1684.63330078125	626.9832763671875	461.0173034667969	926.3720092773438	515.220703125	198.3155059814453	966.9607543945312	726.12060546875	449.8919982910156	962.4099731445312	613.488037109375	519.905517578125	504.32080078125	664.4771118164062	517.3439331054688	669.9957275390625	614.1824340820312	390.2898254394531	142.8146209716797	355.5477294921875	453.2781372070312	325.6991882324219	491.0216064453125	461.1585998535156	47.55404663085938	531.3919677734375	395.2068176269531	77.24771118164062	505.2052001953125	465.9588012695312	83.58730316162109	426.6275939941406	311.62451171875	177.0345611572266	344.3352966308594	237.5617065429688	493.4469604492188	691.1022338867188	153.3918151855469	776.66845703125	710.1912841796875	283.5306701660156	41.22649002075195	577.6390380859375	269.1828002929688	351.9678649902344	678.6638793945312	393.7991638183594	42.75849533081055	773.3251342773438	412.9950256347656	39.76641845703125	698.3772583007812	308.1802368164062	43.45529937744141	707.3531494140625	315.27685546875	31.37846565246582	509.6515808105469	114.7921524047852	928.2127075195312	668.1569213867188	532.9949951171875	885.3438720703125	541.31396484375	537.9356689453125	717.4810791015625	538.0321655273438	nan	nan	nan	nan	nan	nan	
312	3.11	175.7082366943359	998.8313598632812	510.2530822753906	299.9518737792969	1001.135070800781	459.1999206542969	239.5481109619141	1098.656494140625	487.2793884277344	328.4273681640625	1288.841186523438	700.223388671875	231.5807037353516	1224.147583007812	480.0437622070312	224.9816284179688	1498.198486328125	534.2164916992188	313.8904724121094	1398.887451171875	683.9212646484375	122.4657821655273	1367.357055664062	505.0755004882812	293.5859985351562	1450.01416015625	462.4832458496094	411.1771850585938	1477.2265625	513.1463012695312	479.40283203125	1353.0126953125	464.5395202636719	518.1465454101562	1134.276489257812	458.2981262207031	428.8181762695312	1124.747680664062	412.3865356445312	574.1782836914062	869.6700439453125	467.2277526855469	539.2359619140625	1047.831420898438	468.6963806152344	572.6163940429688	808.6744995117188	473.2243957519531	562.2666625976562	807.647216796875	540.5806884765625	111.6406402587891	1452.900268554688	652.291259765625	44.82570648193359	1385.951416015625	665.1821899414062	11.9227180480957	1095.756713867188	681.3492431640625	12.98533916473389	1074.777099609375	620.97412109375	127.4285888671875	903.1759643554688	811.0897216796875	52.87528610229492	869.9968872070312	798.495361328125	13.96253204345703	1041.384399414062	698.5518798828125	153.7353210449219	734.741455078125	841.1685180664062	137.1475982666016	817.4989624023438	854.0350341796875	72.16423034667969	800.2421264648438	822.332763671875	197.7831115722656	1678.1484375	659.9700317382812	377.8327026367188	1676.671752929688	766.544921875	237.0845947265625	1668.1015625	795.3521118164062	362.6791687011719	1684.661010742188	634.001708984375	465.4605407714844	927.2213134765625	524.7156982421875	199.4783172607422	967.1480712890625	731.7236328125	452.3725891113281	963.0523681640625	622.1676025390625	523.4915161132812	507.216796875	680.8703002929688	521.3060913085938	671.9829711914062	627.7360229492188	408.8350830078125	133.5102386474609	381.0956726074219	464.5858459472656	322.0227355957031	511.2986755371094	478.7882080078125	47.28112030029297	561.837646484375	412.40283203125	73.55392456054688	533.0926513671875	484.8163757324219	79.60501098632812	456.0599365234375	329.3515930175781	164.6599884033203	366.8289184570312	237.9999084472656	493.0626525878906	692.6641235351562	155.0442810058594	776.4518432617188	713.6331176757812	283.6636962890625	41.29419326782227	577.59375	269.54931640625	351.6525268554688	679.625244140625	393.8400268554688	42.72065353393555	773.3427124023438	412.9938354492188	39.72342681884766	698.4456787109375	308.2031860351562	43.4538459777832	707.35009765625	315.3815612792969	31.48284149169922	509.6487121582031	116.7947082519531	928.2490234375	672.4174194335938	535.862548828125	885.0902709960938	545.3538818359375	540.7410888671875	717.2402954101562	541.27734375	nan	nan	nan	nan	nan	nan	
